<svg id="Layer_1" data-name="Layer 1" xmlns="http://www.w3.org/2000/svg" viewBox="0 0 809.23 231.36"><path d="M17.18,127.82s-6.87-7.79-6.87-21.53A39.88,39.88,0,0,1,50.17,66.43H91.85a4.21,4.21,0,0,1,4.36,4.35v7.56a4,4,0,0,1-2.52,3.89L80.86,86.36S90,93.46,90,109.72c0,18.1-15.12,36-39.17,36-8.7,0-14.66-1.84-18.32-1.84-3.21,0-8.48,3.21-8.48,8.71,0,4.81,4.13,7.79,9.16,7.79H62.53c20.85,0,37.8,11.91,37.8,32.07,0,21.07-17,38.94-50.16,38.94-33.91,0-46.73-16.73-46.73-31.39,0-13.74,11.45-20.38,13.74-21.76v-.68A24.78,24.78,0,0,1,0,153.47C0,135.61,17.18,127.82,17.18,127.82Zm32.76,80.63c12.82,0,21.3-5.73,21.3-14.43,0-4.12-3.21-11.23-16.72-11.23a105.67,105.67,0,0,0-14.89.92c-2.75.92-9.85,4.12-9.85,11.22C29.78,203,37.57,208.45,49.94,208.45Zm.91-84.53c9.39,0,15.81-6.87,15.81-16.49S60.24,90.94,50.85,90.94c-9.16,0-16,6.87-16,16.49S41.69,123.92,50.85,123.92Z"/><path d="M137.44,102.39a87.5,87.5,0,0,1,17.4,1.83c-.45-11.68-2.52-16.72-12.59-16.72-8.94,0-19.7,2.29-25,3.67A5,5,0,0,1,112,87.5L110,75.13a4.46,4.46,0,0,1,3.66-4.58s17-4.12,31.16-4.12c14.43,0,22.9,3.21,27.71,9.39A43.87,43.87,0,0,1,200,66.43c23.36,0,42.84,17.41,42.84,42.61,0,4.35,0,10.07-4.82,10.07H179.58c1.15,9.4,8.94,20.16,21.76,20.16,7.11,0,13.75-3,18.1-6,2.06-1.38,4.35-2.07,6,0l9.16,10.76c1.37,1.84,2.06,4.13-.23,6-7.56,7.1-19.24,12.6-34.13,12.6-14,0-26.11-5-34.36-14.89-3.89,5-15.58,14.89-32.53,14.89-18.78,0-31.61-12.14-31.61-31.39C101.7,114.76,115,102.39,137.44,102.39Zm2.29,40.55c10.07,0,15.11-9.62,15.11-9.62V121.4a36.12,36.12,0,0,0-14.2-3c-7.33,0-13.74,4.81-13.74,12.14C126.9,138.13,132.85,142.94,139.73,142.94ZM216,102.85c-.45-8.7-8-15.35-16.72-15.35a17.63,17.63,0,0,0-17.64,15.35Z"/><path d="M250.13,149.35,256.32,137c.91-2.29,3.2-2.75,5.27-1.6,0,0,10.3,5.5,20.84,5.5,4.58,0,7.79-1.84,7.79-5.73,0-4.12-3.21-6.64-15.35-11.45C257.23,116.82,249,107.43,249,93.46s10.3-27,33.67-27c13.51,0,23.36,3.89,28.17,7.1,2.07,1.37,3.21,3.89,2.07,6.18L307.17,91.4c-1.15,2.06-3.67,2.29-5.5,1.6,0,0-10.31-4.81-19-4.81-5.5,0-7.79,2.29-7.79,5.27,0,4.12,4.12,5.5,12.6,8.93,17.64,6.87,30.92,14.43,30.92,32.3,0,15.12-13.28,27.95-36.42,27.95-15.12,0-25.65-4.81-30.46-8.48A3.94,3.94,0,0,1,250.13,149.35Z"/><path d="M336.49,92.77H328.7a4.3,4.3,0,0,1-4.12-4.35V73.07a4.16,4.16,0,0,1,4.12-4.35h7.79V43.29a4.5,4.5,0,0,1,4.35-4.35l18.78-.23a4.31,4.31,0,0,1,4.13,4.35V68.72H383.9a4.22,4.22,0,0,1,4.36,4.35V88.42a4.35,4.35,0,0,1-4.36,4.35H363.75v36.65c0,6.42,3.43,7.33,7.1,7.33,3.89,0,8.7-1.6,11.22-2.52a3.56,3.56,0,0,1,5,2.52l4.58,14.43a4.15,4.15,0,0,1-2.52,5.5c-1.14.69-16,6-27.26,6-17.63,0-25.42-11-25.42-29.55Z"/><path d="M403.83,4.35A4.5,4.5,0,0,1,408.18,0h19.47A4.5,4.5,0,0,1,432,4.35v66.2a55.2,55.2,0,0,1,20.39-4.12c27.26,0,45.35,21.3,45.35,48.1,0,26.35-19,48.11-44,48.11a40.17,40.17,0,0,1-30-13.75l-2.29,7.1c-.69,2.52-2.29,4.36-4.36,4.36h-8.93a4.51,4.51,0,0,1-4.35-4.36Zm46.5,133.55c12.14,0,20.84-10.54,20.84-23.37S461.78,91.17,449,91.17c-11.45,0-17.86,5.27-17.86,5.27V123C432.69,128.51,438.19,137.9,450.33,137.9Z"/><path d="M551.34,66.43c25.89,0,47,22,47,47.87,0,26.35-21.07,48.34-47,48.34s-47-22-47-48.34C504.39,88.42,525.46,66.43,551.34,66.43Zm0,71.47c12.14,0,22-10.54,22-23.6,0-12.82-9.85-23.13-22-23.13-12.37,0-22,10.31-22,23.13C529.35,127.36,539,137.9,551.34,137.9Z"/><path d="M651.67,66.43c25.88,0,47,22,47,47.87,0,26.35-21.08,48.34-47,48.34s-47-22-47-48.34C604.71,88.42,625.79,66.43,651.67,66.43Zm0,71.47c12.14,0,22-10.54,22-23.6,0-12.82-9.85-23.13-22-23.13-12.37,0-22,10.31-22,23.13C629.68,127.36,639.3,137.9,651.67,137.9Z"/><path d="M712.14,4.35A4.5,4.5,0,0,1,716.49,0H736a4.5,4.5,0,0,1,4.35,4.35v99.19l31.61-32.07c1.61-1.38,3.21-2.75,5.73-2.75H798.5a3.89,3.89,0,0,1,3,6.64l-34.13,34.82,40.78,43.75c2.29,2.52.91,6.42-3,6.42H780.4a5.66,5.66,0,0,1-3.89-1.84l-36.2-41.23V156a4.51,4.51,0,0,1-4.35,4.36H716.49a4.51,4.51,0,0,1-4.35-4.36Z"/></svg>