<svg id="Layer_1" data-name="Layer 1" xmlns="http://www.w3.org/2000/svg" viewBox="0 0 1209.36 305.17"><defs><style>.cls-1{fill:#fff;}</style></defs><path class="cls-1" d="M91.62,81.74c9.19,2.39,19.07,4.77,26.57,4.77A84.39,84.39,0,0,0,142,83.1a18.52,18.52,0,0,1,1,6.48c0,9.87-6.47,15-17.37,16-2.73.34-8.52.34-11.24.34a55.77,55.77,0,0,1,6.13,24.87c0,35.08-26.57,52.79-55.86,52.79a52.89,52.89,0,0,1-14.3-1.7c-4.43,3.74-9.54,8.85-9.54,10.56,0,5.79,4.77,10.21,19.75,10.89,15.67,1,29.64,1.71,41.9,2.73,27.59,2.38,39.51,18.73,39.51,38.83,0,36.78-37.81,60.28-78,60.28-41.89,0-64-21.12-64-44.62,0-14.3,15.67-27.24,32.7-36.1-12.61-4.77-20.44-15-21.12-26.57,0-1.36.34-2.38,2.72-3.74,6.48-4.09,15.67-10.9,20.78-16.69-17.37-7.84-27.93-23.16-27.93-44.28C7.15,101.5,32,78.34,65.39,78.34A115.64,115.64,0,0,1,91.62,81.74Zm-20.1,203c26.23,0,45-12.6,45-31.33,0-10.56-5.11-20.09-25.2-22.48a185,185,0,0,0-32.7-1.7c-5.45,0-10.9,1-14,3.06-9.2,4.77-18,13.63-18,24.19C26.57,274.86,49,284.73,71.52,284.73ZM35.08,131.47c0,20.77,12.26,35.08,30.31,35.08,19.42,0,29-16.69,29-35.42,0-18.39-8.17-35.76-29.63-35.76C48,95.37,35.08,109.33,35.08,131.47Z"/><path class="cls-1" d="M348.37,205.38c-.68,11.92-10.9,21.8-15.67,24.18-4.42,2.38-18.39,5.79-31,5.79-24.52,0-47.34-9.54-58.24-28.61-12.26,14.3-33.38,28.61-56.2,28.61-24.52,0-40.19-17-40.19-38.15,0-36.78,49.39-48.36,72.89-53.47,4.09-.68,8.17-1.36,10.9-2v-8.18c0-17-9.54-32.35-30.32-32.35-12.26,0-23.5,4.42-33,11.58-9.2,5.45-15.33,0-16.35-11.58C162.07,90.6,184.89,78.34,207,78.34c22.47,0,37.12,12.94,42.23,27.58,10.9-15.66,29.29-27.58,51.77-27.58,38.49,0,53.81,29.63,54.49,55.85a56.41,56.41,0,0,1-1,10.9c-1.36,5.45-17.37,10.9-28.61,12.6-9.19,1-43.59,1.71-68.46,1,.34,33,20.78,53.81,53.14,53.81,14.64,0,31-5.45,37.12-8.17ZM236.66,192.44c-3.07-6.48-6.13-21.12-6.13-33.38-28.27,4.42-54.5,14-54.5,34.06,0,10.9,8.86,19.75,21.8,19.75C211.45,212.87,224.74,206.4,236.66,192.44ZM258.11,141c25.89.69,56.54,0,62.67-.34,4.09-.34,6.47-3.06,6.47-7.83.35-20.43-10.55-36.78-31.33-36.78C276.17,96.05,260.84,114.78,258.11,141Z"/><path class="cls-1" d="M455,89.92c.68,6.13-3.41,15.66-11.24,15.32-7.49-3.74-16.69-6.47-24.86-6.47-13.29,0-23.16,7.84-23.16,19.42,0,9.87,6.47,15.66,14.64,20.09,8.86,4.77,20.44,9.88,30.32,15.67,15.32,8.51,22.13,20.77,22.13,34.4,0,32.35-28.27,47-55.51,47-16.35,0-29.63-4.77-36.79-10.22-3.74-2.38-5.79-5.45-5.79-8.85A20.47,20.47,0,0,1,371.53,202c10.21,7.15,24.18,12.6,37.8,12.6,17,0,25.89-8.51,25.89-20.43,0-8.18-4.77-14.65-16.69-20.78-9.2-4.77-17.71-8.51-25.89-12.94-14-7.84-23.84-19.76-23.84-37.47,0-27.58,24.18-44.61,51.09-44.61C432.83,78.34,446.8,82.08,455,89.92Z"/><path class="cls-1" d="M565.32,206.74c1.36,7.15.68,14.3-5.79,19.41-6.81,5.79-19.75,9.2-32,9.2-30,0-42.23-19.07-42.23-45V102.52c-11.58,0-16.35-3.75-16.35-7.15,3.41-7.16,24.87-26.57,29.63-31a31,31,0,0,1,17.37-8.51c-.68,10.9-1.36,19.41-1.36,26.56h54.16c-3.41,17-10.56,18.4-16.69,18.74-11.58,1-12.95,1-37.81,1-1.36,34.74-1.36,71.52,0,85.83,1.7,20.43,12.94,25.54,24.52,25.54,9.88,0,19.76-3.4,25.55-7.15Z"/><path class="cls-1" d="M613.34,93.66C625.94,86.17,644,78.34,659,78.34c31,0,63.35,22.48,63.35,71.52,0,53.47-40.87,85.49-90.25,85.49-17.37,0-33.72-4.09-41.56-8.52-4.08-2-5.79-4.08-5.79-9.87V42.57c0-20.77-.68-31-1.36-37.8C590.18,2.38,603.47,0,608.23,0c3.75,0,5.11,1.7,5.11,22.14Zm0,119.21c6.13,2.38,15,3.41,21.46,3.41,30,0,57.22-20.44,57.22-62,0-33-19.07-52.79-47.68-52.79-8.18,0-22.48,4.08-31,9.19Z"/><path class="cls-1" d="M887.51,155.31c0,45.3-29,80-74.93,80-49.73,0-73.91-36.78-73.91-77,0-45,31.34-80,76.3-80C862.65,78.34,887.51,112.05,887.51,155.31Zm-118.18-.68c0,41.55,21.11,62,46,62,20.43,0,41.55-17,41.55-58.93,0-31.33-13.63-60.62-44.62-60.62C789.08,97.07,769.33,117.5,769.33,154.63Z"/><path class="cls-1" d="M1053,155.31c0,45.3-29,80-74.93,80-49.72,0-73.91-36.78-73.91-77,0-45,31.34-80,76.3-80C1028.17,78.34,1053,112.05,1053,155.31Zm-118.18-.68c0,41.55,21.12,62,46,62,20.43,0,41.55-17,41.55-58.93,0-31.33-13.62-60.62-44.62-60.62C954.6,97.07,934.85,117.5,934.85,154.63Z"/><path class="cls-1" d="M1107.86,152.58c21.12-19.41,60-61.3,71.87-74.24a68.31,68.31,0,0,1,17.37,2c6.13,2,6.81,4.43-2.73,14.65-14,15-36.44,36.1-55.51,54.83,12.94,17.37,54.49,65.39,70.5,79.36l-.34,1c-4.09,2.38-13,3.75-21.12,3.75-8.51,0-14.3-3.07-20.78-10.56-12.94-14-46.32-49.39-59.26-68.12v67.78c0,6.81-2,8.51-8.17,9.19a182.06,182.06,0,0,1-21.46,1c.68-13.63,1-33.72,1-62.33V42.57c0-20.43-.68-30.65-1.36-37.8C1083.34,2,1098.33,0,1103.09,0c3.41,0,4.77,1.7,4.77,22.14Z"/></svg>